<?xml version="1.0" encoding="UTF-8"?> <svg xmlns="http://www.w3.org/2000/svg" width="250" height="77" viewBox="0 0 250 77" fill="none"><path d="M17.5881 28C17.3535 27.8933 17.1188 27.776 16.8841 27.648C15.6468 26.9227 14.6655 25.9413 13.9401 24.704C13.2148 23.4667 12.8521 22.1227 12.8521 20.672V4.608C12.7881 3.54133 12.3721 2.64533 11.6041 1.92C10.8361 1.19467 9.91879 0.831999 8.85212 0.831999C7.78545 0.831999 6.85745 1.19467 6.06812 1.92C5.30012 2.64533 4.88412 3.54133 4.82012 4.608V20.672C4.82012 22.1227 4.45745 23.4667 3.73212 24.704C3.02812 25.9413 2.05745 26.9227 0.820119 27.648C0.585453 27.776 0.350786 27.8933 0.116119 28C0.585453 27.3173 0.820119 26.5707 0.820119 25.76V8.64C0.820119 7.18933 1.18279 5.84533 1.90812 4.608C2.61212 3.37067 3.58279 2.4 4.82012 1.696C6.05745 0.970665 7.39079 0.607998 8.82012 0.607998C10.2708 0.607998 11.6148 0.970665 12.8521 1.696C14.0895 2.4 15.0708 3.37067 15.7961 4.608C16.5215 5.84533 16.8841 7.18933 16.8841 8.64V25.76C16.8841 26.5707 17.1188 27.3173 17.5881 28ZM27.8506 12.224C27.3386 12.7147 26.752 12.832 26.0906 12.576C25.8773 12.4907 25.6853 12.3733 25.5146 12.224C25.5146 12.2027 25.504 12.1813 25.4826 12.16C25.44 12.1173 25.408 12.0747 25.3866 12.032C25.216 11.8187 25.1093 11.584 25.0666 11.328C24.9813 10.7733 25.1306 10.2933 25.5146 9.888C25.5786 9.84533 25.632 9.80267 25.6746 9.76C25.0133 9.93067 24.4266 10.2613 23.9146 10.752C23.4026 11.2213 23.0506 11.7867 22.8586 12.448V28H18.8266V8.16C18.8266 6.70933 19.1786 5.36533 19.8826 4.128C20.608 2.89067 21.6 1.90933 22.8586 1.184C23.072 1.056 23.296 0.938665 23.5306 0.831999C23.0826 1.51467 22.8586 2.26133 22.8586 3.072V10.4C24.032 9.73867 25.312 9.408 26.6986 9.408C27.1466 9.408 27.5306 9.568 27.8506 9.888C28.1706 10.208 28.3306 10.6027 28.3306 11.072C28.3306 11.52 28.1706 11.904 27.8506 12.224ZM46.5566 8.64V10.912H42.5246V4.608C42.4606 3.54133 42.034 2.64533 41.2446 1.92C40.4766 1.19467 39.5593 0.831999 38.4926 0.831999C37.9806 0.831999 37.4793 0.927999 36.9886 1.12C36.5193 1.312 36.1033 1.57867 35.7406 1.92C35.378 2.26133 35.09 2.66667 34.8766 3.136C34.6633 3.60533 34.5353 4.096 34.4926 4.608V16.512H34.4606V20.672C34.4606 22.1227 34.098 23.4667 33.3726 24.704C32.6686 25.9413 31.698 26.9227 30.4606 27.648C30.226 27.776 29.9913 27.8933 29.7566 28C30.226 27.3173 30.4606 26.5707 30.4606 25.76V10.112V8.64C30.4606 7.18933 30.8233 5.84533 31.5486 4.608C32.274 3.37067 33.2553 2.4 34.4926 1.696C35.73 0.970665 37.0633 0.607998 38.4926 0.607998C39.9433 0.607998 41.2873 0.970665 42.5246 1.696C43.762 2.4 44.7326 3.37067 45.4366 4.608C46.162 5.84533 46.5353 7.18933 46.5566 8.64ZM54.6846 26.464C55.4526 27.1893 56.37 27.552 57.4366 27.552C58.5033 27.552 59.4313 27.1787 60.2206 26.432L60.1566 26.336C60.1566 26.3147 60.1246 26.24 60.0606 26.112C60.018 26.048 59.9753 25.984 59.9326 25.92C59.762 25.6213 59.5806 25.344 59.3886 25.088C59.0046 24.5547 58.5566 24.096 58.0446 23.712C57.5113 23.328 56.9353 23.0507 56.3166 22.88C55.7193 22.688 55.0793 22.6027 54.3966 22.624C54.0766 22.6453 53.7566 22.688 53.4366 22.752V23.776C53.5006 24.8213 53.9166 25.7173 54.6846 26.464ZM61.4686 0.735998C62.706 1.44 63.6873 2.42133 64.4126 3.68C65.1166 4.91733 65.4686 6.25067 65.4686 7.68V19.712C65.4686 19.7333 65.4686 19.744 65.4686 19.744C65.4686 21.1947 65.106 22.5387 64.3806 23.776C63.6766 24.992 62.706 25.9627 61.4686 26.688C61.362 26.7307 61.2446 26.784 61.1166 26.848C61.4153 27.3387 61.7033 27.7547 61.9806 28.096C62.0446 28.1813 62.1193 28.2667 62.2046 28.352C62.2473 27.9467 62.418 27.6053 62.7166 27.328C63.0366 27.0507 63.41 26.912 63.8366 26.912C64.2846 26.912 64.6686 27.072 64.9886 27.392C65.3086 27.712 65.4686 28.096 65.4686 28.544C65.4686 28.8 65.4153 29.0347 65.3086 29.248C65.3086 29.2693 65.298 29.2907 65.2766 29.312C65.106 29.6533 64.8393 29.8987 64.4766 30.048C64.4766 30.048 64.4553 30.0587 64.4126 30.08C64.37 30.08 64.338 30.0907 64.3166 30.112C64.082 30.1973 63.8473 30.2293 63.6126 30.208C63.3993 30.1867 63.1966 30.1333 63.0046 30.048C62.6846 29.8987 62.3753 29.6747 62.0766 29.376C61.9486 29.248 61.8313 29.1093 61.7246 28.96C61.618 28.832 61.5113 28.6933 61.4046 28.544C61.1273 28.1387 60.8393 27.6693 60.5406 27.136C59.5593 27.5413 58.5246 27.744 57.4366 27.744C56.0073 27.744 54.674 27.392 53.4366 26.688C52.1993 25.9627 51.218 24.992 50.4926 23.776C49.7673 22.5387 49.4046 21.1947 49.4046 19.744C49.4046 19.744 49.4046 19.7333 49.4046 19.712V7.68C49.4046 6.25067 49.7566 4.91733 50.4606 3.68C51.186 2.42133 52.178 1.44 53.4366 0.735998C53.65 0.607999 53.874 0.490665 54.1086 0.383999C53.6606 1.04533 53.4366 1.792 53.4366 2.624V22.656C53.7566 22.5707 54.0766 22.5173 54.3966 22.496C55.0793 22.432 55.7513 22.4747 56.4126 22.624C57.0526 22.7733 57.6713 23.04 58.2686 23.424C58.8233 23.7867 59.3246 24.2453 59.7726 24.8C59.986 25.056 60.1886 25.3333 60.3806 25.632C60.4233 25.7173 60.466 25.792 60.5086 25.856C60.5726 25.9413 60.6046 25.984 60.6046 25.984C61.1166 25.344 61.4046 24.608 61.4686 23.776V2.624C61.4686 1.792 61.234 1.04533 60.7646 0.383999C60.9993 0.490665 61.234 0.607999 61.4686 0.735998ZM87.7906 16.128V10.912H91.8226V16.128V16.544C91.8226 16.5653 91.8226 16.576 91.8226 16.576C91.8226 18.0267 91.46 19.3707 90.7346 20.608C90.0093 21.824 89.028 22.7947 87.7906 23.52C86.5533 24.224 85.2093 24.576 83.7586 24.576C82.3293 24.576 80.996 24.224 79.7586 23.52C78.5213 22.7947 77.5506 21.824 76.8466 20.608C76.2706 19.648 75.9186 18.6133 75.7906 17.504C75.7693 17.184 75.7586 16.8747 75.7586 16.576C75.7586 16.576 75.7586 16.5653 75.7586 16.544V11.2H75.7266C75.7053 10.8373 75.6413 10.4853 75.5346 10.144C75.5133 10.08 75.492 10.0267 75.4706 9.984C75.3 9.536 75.0546 9.14133 74.7346 8.8C74.436 8.43733 74.0733 8.14933 73.6466 7.936C73.2413 7.70133 72.804 7.552 72.3346 7.488V28H68.3026V7.936C68.3026 6.50667 68.6546 5.17333 69.3586 3.936C70.084 2.67733 71.076 1.68533 72.3346 0.959999C72.548 0.831999 72.772 0.714666 73.0066 0.607998C72.5586 1.29066 72.3346 2.048 72.3346 2.88V7.232C73.5506 7.31733 74.692 7.66933 75.7586 8.288C76.9746 9.01333 77.9453 9.984 78.6706 11.2C79.2253 12.16 79.5666 13.1947 79.6946 14.304C79.7373 14.6027 79.7586 14.912 79.7586 15.232V20.608C79.78 20.9707 79.8546 21.3227 79.9826 21.664C80.004 21.728 80.0253 21.7813 80.0466 21.824C80.3453 22.5707 80.8253 23.1893 81.4866 23.68C82.1693 24.1493 82.9266 24.384 83.7586 24.384C84.612 24.384 85.38 24.1493 86.0626 23.68C86.7453 23.1893 87.236 22.5707 87.5346 21.824C87.556 21.7813 87.5773 21.728 87.5986 21.664C87.7053 21.3227 87.7693 20.9707 87.7906 20.608V16.128ZM122.053 21.408V10.912H126.085V20.672C126.085 22.2507 125.659 23.712 124.805 25.056C123.952 26.3787 122.811 27.36 121.381 28C121.829 27.3173 122.053 26.5707 122.053 25.76V21.6C121.755 21.6 121.083 21.6107 120.037 21.632C118.992 21.632 118.224 21.6213 117.733 21.6C117.264 21.5787 116.656 21.4827 115.909 21.312C115.184 21.1413 114.555 20.8853 114.021 20.544C112.805 19.84 111.824 18.8693 111.077 17.632C110.352 16.3733 110 15.0293 110.021 13.6C110.021 13.1307 110.021 9.55733 110.021 2.88C110.021 2.048 109.787 1.29066 109.317 0.607998C110.747 1.26933 111.888 2.26133 112.741 3.584C113.595 4.90667 114.021 6.35733 114.021 7.936V11.328C114.021 11.8187 114.021 12.8747 114.021 14.496C114.021 16.096 114.021 17.1413 114.021 17.632C114.085 18.6347 114.48 19.4987 115.205 20.224C115.931 20.9493 116.805 21.344 117.829 21.408C117.872 21.408 119.28 21.408 122.053 21.408ZM138.022 24.768C138.342 24.832 138.609 24.992 138.822 25.248C139.057 25.4827 139.206 25.7493 139.27 26.048C139.313 26.2827 139.313 26.5067 139.27 26.72C139.27 26.7413 139.259 26.7627 139.238 26.784C139.238 26.8267 139.227 26.88 139.206 26.944C139.099 27.1787 138.95 27.392 138.758 27.584C138.438 27.8613 138.075 28 137.67 28C136.219 28 134.875 27.6373 133.638 26.912C132.401 26.208 131.43 25.2373 130.726 24C130.363 23.4027 130.086 22.7733 129.894 22.112C129.723 21.4293 129.638 20.7253 129.638 20C129.638 19.9787 129.638 19.968 129.638 19.968V18.528V17.984V17.952V2.88C129.638 2.048 129.403 1.29066 128.934 0.607998C129.169 0.714666 129.403 0.831999 129.638 0.959999C130.875 1.68533 131.846 2.67733 132.55 3.936C133.275 5.17333 133.638 6.50667 133.638 7.936V18.528V24C133.702 24.8747 134.011 25.6533 134.566 26.336C135.121 26.9973 135.825 27.4347 136.678 27.648C136.123 27.2427 135.921 26.6987 136.07 26.016C136.134 25.7173 136.262 25.4613 136.454 25.248C136.646 25.0347 136.881 24.8853 137.158 24.8C137.435 24.7147 137.723 24.704 138.022 24.768ZM157.825 11.2C158.55 12.4373 158.913 13.7813 158.913 15.232C158.913 15.232 158.913 15.2427 158.913 15.264V17.696H154.881V11.2C154.859 10.8373 154.795 10.4853 154.689 10.144C154.667 10.08 154.646 10.0267 154.625 9.984C154.326 9.216 153.835 8.59733 153.153 8.128C152.47 7.65867 151.702 7.424 150.849 7.424C150.017 7.424 149.259 7.65867 148.577 8.128C147.915 8.59733 147.435 9.216 147.137 9.984C147.115 10.0267 147.094 10.08 147.073 10.144C146.945 10.4853 146.87 10.8373 146.849 11.2V17.504V20.672C146.849 22.1227 146.486 23.4667 145.761 24.704C145.057 25.9413 144.086 26.9227 142.849 27.648C142.614 27.776 142.379 27.8933 142.145 28C142.614 27.3173 142.849 26.5707 142.849 25.76V10.144V7.936C142.849 6.50667 143.201 5.17333 143.905 3.936C144.63 2.67733 145.611 1.68533 146.849 0.959999C147.083 0.831999 147.318 0.714666 147.553 0.607998C147.083 1.29066 146.849 2.048 146.849 2.88V8.288C148.086 7.584 149.419 7.232 150.849 7.232C152.299 7.232 153.643 7.584 154.881 8.288C156.118 9.01333 157.099 9.984 157.825 11.2ZM183.457 10.912V20C183.457 21.4293 183.095 22.7627 182.369 24C181.644 25.2373 180.673 26.208 179.457 26.912C178.22 27.6373 176.876 28 175.425 28C173.996 28 172.652 27.6373 171.393 26.912C170.177 26.208 169.207 25.2373 168.481 24C167.756 22.7627 167.393 21.4293 167.393 20C167.393 19.9787 167.393 19.968 167.393 19.968V4.608C167.351 4.032 167.191 3.488 166.913 2.976C166.657 2.464 166.305 2.03733 165.857 1.696C165.409 1.35467 164.919 1.10933 164.385 0.959999C164.599 1.13067 164.759 1.344 164.865 1.6C164.972 1.81333 165.015 2.03733 164.993 2.272C164.993 2.29333 164.993 2.304 164.993 2.304C164.993 2.368 164.993 2.432 164.993 2.496C164.972 2.624 164.929 2.752 164.865 2.88C164.823 2.98667 164.769 3.09333 164.705 3.2C164.385 3.66933 163.937 3.904 163.361 3.904C162.913 3.904 162.529 3.744 162.209 3.424C161.889 3.08267 161.729 2.688 161.729 2.24C161.729 1.792 161.889 1.408 162.209 1.088C162.529 0.767998 162.924 0.607998 163.393 0.607998C163.393 0.607998 163.415 0.607998 163.457 0.607998C164.865 0.629332 166.177 0.991999 167.393 1.696C168.631 2.4 169.601 3.37067 170.305 4.608C171.031 5.84533 171.393 7.18933 171.393 8.64V24H171.425C171.489 25.0667 171.905 25.9627 172.673 26.688C173.441 27.4133 174.359 27.776 175.425 27.776C176.492 27.776 177.409 27.4133 178.177 26.688C178.945 25.9627 179.361 25.0667 179.425 24H179.457V10.912H183.457ZM203.083 17.696C203.083 17.7813 203.083 18.1547 203.083 18.816V20C203.083 21.4293 202.72 22.7627 201.995 24C201.27 25.2373 200.288 26.208 199.051 26.912C197.814 27.6373 196.47 28 195.019 28C193.59 28 192.256 27.6373 191.019 26.912C189.782 26.208 188.811 25.2373 188.107 24C187.744 23.4027 187.467 22.7733 187.275 22.112C187.104 21.4293 187.019 20.7253 187.019 20C187.019 19.9787 187.019 19.968 187.019 19.968V2.88C187.019 2.048 186.784 1.29066 186.315 0.607998C186.55 0.714666 186.784 0.831999 187.019 0.959999C188.256 1.68533 189.227 2.67733 189.931 3.936C190.656 5.17333 191.019 6.50667 191.019 7.936V10.944H198.283C198.646 10.944 198.944 10.944 199.179 10.944C199.414 10.944 199.734 10.9653 200.139 11.008C200.544 11.0293 200.886 11.0933 201.163 11.2C201.462 11.2853 201.76 11.4027 202.059 11.552C202.358 11.68 202.592 11.872 202.763 12.128C202.934 12.3627 203.04 12.64 203.083 12.96C203.083 12.9813 203.083 12.992 203.083 12.992C203.083 13.056 203.083 13.12 203.083 13.184C203.083 13.2267 203.083 13.2587 203.083 13.28C203.083 13.3227 203.083 13.3547 203.083 13.376C203.083 13.3973 203.072 13.408 203.051 13.408C203.03 13.664 202.944 13.8987 202.795 14.112C202.795 14.112 202.795 14.1227 202.795 14.144H202.763C202.528 14.464 202.23 14.6773 201.867 14.784C201.526 14.8693 201.195 14.8587 200.875 14.752C200.576 14.624 200.32 14.4107 200.107 14.112C199.894 13.8133 199.798 13.472 199.819 13.088C199.819 13.0453 199.819 13.0133 199.819 12.992C199.883 12.5013 200.118 12.1173 200.523 11.84C200.011 11.5413 199.264 11.392 198.283 11.392H191.019V24C191.04 24.384 191.115 24.7467 191.243 25.088C191.264 25.152 191.286 25.2053 191.307 25.248C191.606 25.9947 192.086 26.6027 192.747 27.072C193.43 27.5413 194.198 27.776 195.051 27.776C196.118 27.776 197.035 27.4133 197.803 26.688C198.571 25.9627 198.987 25.0667 199.051 24V17.696H203.083ZM227.66 10.912V20C227.66 21.4293 227.297 22.7627 226.572 24C225.846 25.2373 224.876 26.208 223.66 26.912C222.422 27.6373 221.078 28 219.628 28C218.198 28 216.854 27.6373 215.596 26.912C214.38 26.208 213.409 25.2373 212.684 24C211.958 22.7627 211.596 21.4293 211.596 20C211.596 19.9787 211.596 19.968 211.596 19.968V4.608C211.553 4.032 211.393 3.488 211.116 2.976C210.86 2.464 210.508 2.03733 210.06 1.696C209.612 1.35467 209.121 1.10933 208.588 0.959999C208.801 1.13067 208.961 1.344 209.068 1.6C209.174 1.81333 209.217 2.03733 209.196 2.272C209.196 2.29333 209.196 2.304 209.196 2.304C209.196 2.368 209.196 2.432 209.196 2.496C209.174 2.624 209.132 2.752 209.068 2.88C209.025 2.98667 208.972 3.09333 208.908 3.2C208.588 3.66933 208.14 3.904 207.564 3.904C207.116 3.904 206.732 3.744 206.412 3.424C206.092 3.08267 205.932 2.688 205.932 2.24C205.932 1.792 206.092 1.408 206.412 1.088C206.732 0.767998 207.126 0.607998 207.596 0.607998C207.596 0.607998 207.617 0.607998 207.66 0.607998C209.068 0.629332 210.38 0.991999 211.596 1.696C212.833 2.4 213.804 3.37067 214.508 4.608C215.233 5.84533 215.596 7.18933 215.596 8.64V24H215.628C215.692 25.0667 216.108 25.9627 216.876 26.688C217.644 27.4133 218.561 27.776 219.628 27.776C220.694 27.776 221.612 27.4133 222.38 26.688C223.148 25.9627 223.564 25.0667 223.628 24H223.66V10.912H227.66ZM245.045 16.384V10.912V4.608H245.013C244.949 3.54133 244.533 2.64533 243.765 1.92C242.997 1.19467 242.08 0.831999 241.013 0.831999C239.946 0.831999 239.029 1.19467 238.261 1.92C237.493 2.64533 237.077 3.54133 237.013 4.608H236.981V21.216C238.154 20.5547 239.413 20.2027 240.757 20.16C240.8 20.16 240.832 20.16 240.853 20.16C240.896 20.16 240.949 20.16 241.013 20.16C241.632 20.16 242.218 20.0213 242.773 19.744C243.818 19.232 244.512 18.4107 244.853 17.28C244.938 16.9813 244.992 16.6827 245.013 16.384H245.045ZM249.045 10.912C249.045 10.9973 249.045 11.0827 249.045 11.168V12.32C249.045 12.3413 249.045 12.352 249.045 12.352C249.045 13.8027 248.682 15.1467 247.957 16.384C247.616 16.9387 247.221 17.4613 246.773 17.952C246.24 18.464 245.664 18.912 245.045 19.296C244.32 19.7013 243.562 19.9893 242.773 20.16C242.197 20.288 241.61 20.352 241.013 20.352C240.97 20.352 240.928 20.352 240.885 20.352C240.074 20.3733 239.338 20.6187 238.677 21.088C238.037 21.5573 237.568 22.1653 237.269 22.912C237.248 22.9547 237.226 23.008 237.205 23.072C237.098 23.4133 237.034 23.7653 237.013 24.128H236.981V25.888H244.245C245.226 25.888 245.973 25.7387 246.485 25.44C246.08 25.1627 245.845 24.7787 245.781 24.288C245.781 24.2453 245.781 24.2133 245.781 24.192C245.738 23.6587 245.898 23.232 246.261 22.912C246.624 22.5707 247.05 22.4213 247.541 22.464C248.032 22.4853 248.426 22.6987 248.725 23.104H248.757V23.136C248.757 23.136 248.757 23.1467 248.757 23.168C248.906 23.3813 249.002 23.616 249.045 23.872C249.045 23.9147 249.045 23.9467 249.045 23.968C249.045 24.0107 249.045 24.0427 249.045 24.064C249.045 24.1493 249.045 24.224 249.045 24.288C249.045 24.3093 249.045 24.32 249.045 24.32C249.002 24.704 248.842 25.0347 248.565 25.312C248.309 25.5893 248.021 25.792 247.701 25.92C247.402 26.048 246.997 26.144 246.485 26.208C245.994 26.272 245.61 26.3147 245.333 26.336C245.056 26.336 244.693 26.336 244.245 26.336H236.981V28H232.981C232.981 27.9787 232.981 27.424 232.981 26.336H230.517V25.888H232.981C232.981 21.7707 232.981 17.5253 232.981 13.152V8.64C232.981 7.18933 233.344 5.84533 234.069 4.608C234.794 3.37067 235.765 2.4 236.981 1.696C238.218 0.970665 239.552 0.607998 240.981 0.607998C242.432 0.607998 243.786 0.970665 245.045 1.696C246.261 2.4 247.232 3.37067 247.957 4.608C248.682 5.84533 249.045 7.18933 249.045 8.64V9.504C249.045 10.336 249.045 10.8053 249.045 10.912ZM54.6121 66.144C54.7401 66.3787 54.8575 66.6027 54.9641 66.816C55.6681 68.352 55.6681 69.8773 54.9641 71.392C54.9215 71.456 54.8895 71.5093 54.8681 71.552C54.7828 71.7227 54.6975 71.8933 54.6121 72.064C53.8868 73.28 52.9055 74.24 51.6681 74.944C50.4308 75.648 49.0868 76 47.6361 76C46.2068 76 44.8735 75.648 43.6361 74.944C42.3988 74.24 41.4175 73.28 40.6921 72.064C39.9881 70.848 39.6255 69.5253 39.6041 68.096V65.696H43.6361V68.128V72.064C43.7001 73.1093 44.1161 73.9947 44.8841 74.72C45.6521 75.424 46.5695 75.776 47.6361 75.776C48.7028 75.776 49.6201 75.424 50.3881 74.72C51.1775 73.9947 51.6041 73.1093 51.6681 72.064V66.144C51.6468 65.8453 51.5935 65.5467 51.5081 65.248C51.1668 64.1387 50.4628 63.328 49.3961 62.816C48.8415 62.56 48.2228 62.432 47.5401 62.432C46.8788 62.432 46.2601 62.368 45.6841 62.24C44.8735 62.048 44.1161 61.7493 43.4121 61.344C42.7721 60.9813 42.1961 60.544 41.6841 60.032C41.3001 59.648 40.9588 59.232 40.6601 58.784C40.5961 58.6773 40.5321 58.5813 40.4681 58.496C40.3401 58.2613 40.2228 58.0267 40.1161 57.792C39.4121 56.2773 39.4121 54.7627 40.1161 53.248C40.1588 53.184 40.1908 53.1307 40.2121 53.088C40.2975 52.896 40.3828 52.7253 40.4681 52.576C41.1935 51.36 42.1748 50.4 43.4121 49.696C44.6495 48.9707 45.9828 48.608 47.4121 48.608C48.8628 48.608 50.2068 48.9707 51.4441 49.696C52.6815 50.4 53.6521 51.36 54.3561 52.576C55.0815 53.792 55.4548 55.1147 55.4761 56.544V58.944H51.4441V56.512V52.576C51.3801 51.5307 50.9535 50.6453 50.1641 49.92C49.3961 49.1947 48.4788 48.832 47.4121 48.832C46.3455 48.832 45.4281 49.1947 44.6601 49.92C43.8921 50.6453 43.4761 51.5307 43.4121 52.576V58.496C43.4335 58.7947 43.4868 59.0933 43.5721 59.392C43.9135 60.5013 44.6175 61.312 45.6841 61.824C46.2175 62.08 46.8361 62.208 47.5401 62.208C48.2015 62.208 48.8201 62.272 49.3961 62.4C50.2068 62.5707 50.9641 62.8587 51.6681 63.264C52.3081 63.6267 52.8841 64.0747 53.3961 64.608C53.7801 64.992 54.1215 65.408 54.4201 65.856C54.4841 65.9413 54.5481 66.0373 54.6121 66.144ZM75.2344 65.696C75.2344 65.7813 75.2344 66.1547 75.2344 66.816V68C75.2344 69.4293 74.8717 70.7627 74.1464 72C73.421 73.2373 72.4397 74.208 71.2024 74.912C69.965 75.6373 68.621 76 67.1704 76C65.741 76 64.4077 75.6373 63.1704 74.912C61.933 74.208 60.9624 73.2373 60.2584 72C59.8957 71.4027 59.6184 70.7733 59.4264 70.112C59.2557 69.4293 59.1704 68.7253 59.1704 68C59.1704 67.9787 59.1704 67.968 59.1704 67.968V50.88C59.1704 50.048 58.9357 49.2907 58.4664 48.608C58.701 48.7147 58.9357 48.832 59.1704 48.96C60.4077 49.6853 61.3784 50.6773 62.0824 51.936C62.8077 53.1733 63.1704 54.5067 63.1704 55.936V58.944H70.4344C70.797 58.944 71.0957 58.944 71.3304 58.944C71.565 58.944 71.885 58.9653 72.2904 59.008C72.6957 59.0293 73.037 59.0933 73.3144 59.2C73.613 59.2853 73.9117 59.4027 74.2104 59.552C74.509 59.68 74.7437 59.872 74.9144 60.128C75.085 60.3627 75.1917 60.64 75.2344 60.96C75.2344 60.9813 75.2344 60.992 75.2344 60.992C75.2344 61.056 75.2344 61.12 75.2344 61.184C75.2344 61.2267 75.2344 61.2587 75.2344 61.28C75.2344 61.3227 75.2344 61.3547 75.2344 61.376C75.2344 61.3973 75.2237 61.408 75.2024 61.408C75.181 61.664 75.0957 61.8987 74.9464 62.112C74.9464 62.112 74.9464 62.1227 74.9464 62.144H74.9144C74.6797 62.464 74.381 62.6773 74.0184 62.784C73.677 62.8693 73.3464 62.8587 73.0264 62.752C72.7277 62.624 72.4717 62.4107 72.2584 62.112C72.045 61.8133 71.949 61.472 71.9704 61.088C71.9704 61.0453 71.9704 61.0133 71.9704 60.992C72.0344 60.5013 72.269 60.1173 72.6744 59.84C72.1624 59.5413 71.4157 59.392 70.4344 59.392H63.1704V72C63.1917 72.384 63.2664 72.7467 63.3944 73.088C63.4157 73.152 63.437 73.2053 63.4584 73.248C63.757 73.9947 64.237 74.6027 64.8984 75.072C65.581 75.5413 66.349 75.776 67.2024 75.776C68.269 75.776 69.1864 75.4133 69.9544 74.688C70.7224 73.9627 71.1384 73.0667 71.2024 72V65.696H75.2344ZM94.8831 48.96C95.0965 48.832 95.3311 48.7147 95.5871 48.608C95.1178 49.2907 94.8831 50.048 94.8831 50.88V63.776V68C94.8831 69.4293 94.5205 70.7627 93.7951 72C93.0698 73.2373 92.0885 74.208 90.8511 74.912C89.6138 75.6373 88.2805 76 86.8511 76C85.4005 76 84.0565 75.6373 82.8191 74.912C81.5818 74.208 80.6111 73.2373 79.9071 72C79.5445 71.4027 79.2671 70.7733 79.0751 70.112C78.9045 69.4293 78.8191 68.7253 78.8191 68C78.8191 67.9787 78.8191 67.968 78.8191 67.968V63.776V63.584V50.88C78.8191 50.048 78.5845 49.2907 78.1151 48.608C78.3498 48.7147 78.5845 48.832 78.8191 48.96C80.0565 49.6853 81.0271 50.6773 81.7311 51.936C82.4565 53.1733 82.8191 54.5067 82.8191 55.936V63.584V63.776V72C82.8831 73.0667 83.2991 73.9627 84.0671 74.688C84.8565 75.4133 85.7845 75.776 86.8511 75.776C87.9178 75.776 88.8351 75.4133 89.6031 74.688C90.3711 73.9627 90.7871 73.0667 90.8511 72V60.096V55.936C90.8511 54.5067 91.2138 53.1733 91.9391 51.936C92.6645 50.6773 93.6458 49.6853 94.8831 48.96ZM120.147 58.912V68C120.147 69.4293 119.784 70.7627 119.059 72C118.333 73.2373 117.363 74.208 116.147 74.912C114.909 75.6373 113.565 76 112.115 76C110.685 76 109.341 75.6373 108.083 74.912C106.867 74.208 105.896 73.2373 105.171 72C104.445 70.7627 104.083 69.4293 104.083 68C104.083 67.9787 104.083 67.968 104.083 67.968V52.608C104.04 52.032 103.88 51.488 103.603 50.976C103.347 50.464 102.995 50.0373 102.547 49.696C102.099 49.3547 101.608 49.1093 101.075 48.96C101.288 49.1307 101.448 49.344 101.555 49.6C101.661 49.8133 101.704 50.0373 101.683 50.272C101.683 50.2933 101.683 50.304 101.683 50.304C101.683 50.368 101.683 50.432 101.683 50.496C101.661 50.624 101.619 50.752 101.555 50.88C101.512 50.9867 101.459 51.0933 101.395 51.2C101.075 51.6693 100.627 51.904 100.051 51.904C99.6026 51.904 99.2186 51.744 98.8986 51.424C98.5786 51.0827 98.4186 50.688 98.4186 50.24C98.4186 49.792 98.5786 49.408 98.8986 49.088C99.2186 48.768 99.6133 48.608 100.083 48.608C100.083 48.608 100.104 48.608 100.147 48.608C101.555 48.6293 102.867 48.992 104.083 49.696C105.32 50.4 106.291 51.3707 106.995 52.608C107.72 53.8453 108.083 55.1893 108.083 56.64V72H108.115C108.179 73.0667 108.595 73.9627 109.363 74.688C110.131 75.4133 111.048 75.776 112.115 75.776C113.181 75.776 114.099 75.4133 114.867 74.688C115.635 73.9627 116.051 73.0667 116.115 72H116.147V58.912H120.147ZM139.772 65.696C139.772 65.7813 139.772 66.1547 139.772 66.816V68C139.772 69.4293 139.409 70.7627 138.684 72C137.959 73.2373 136.977 74.208 135.74 74.912C134.503 75.6373 133.159 76 131.708 76C130.279 76 128.945 75.6373 127.708 74.912C126.471 74.208 125.5 73.2373 124.796 72C124.433 71.4027 124.156 70.7733 123.964 70.112C123.793 69.4293 123.708 68.7253 123.708 68C123.708 67.9787 123.708 67.968 123.708 67.968V50.88C123.708 50.048 123.473 49.2907 123.004 48.608C123.239 48.7147 123.473 48.832 123.708 48.96C124.945 49.6853 125.916 50.6773 126.62 51.936C127.345 53.1733 127.708 54.5067 127.708 55.936V58.944H134.972C135.335 58.944 135.633 58.944 135.868 58.944C136.103 58.944 136.423 58.9653 136.828 59.008C137.233 59.0293 137.575 59.0933 137.852 59.2C138.151 59.2853 138.449 59.4027 138.748 59.552C139.047 59.68 139.281 59.872 139.452 60.128C139.623 60.3627 139.729 60.64 139.772 60.96C139.772 60.9813 139.772 60.992 139.772 60.992C139.772 61.056 139.772 61.12 139.772 61.184C139.772 61.2267 139.772 61.2587 139.772 61.28C139.772 61.3227 139.772 61.3547 139.772 61.376C139.772 61.3973 139.761 61.408 139.74 61.408C139.719 61.664 139.633 61.8987 139.484 62.112C139.484 62.112 139.484 62.1227 139.484 62.144H139.452C139.217 62.464 138.919 62.6773 138.556 62.784C138.215 62.8693 137.884 62.8587 137.564 62.752C137.265 62.624 137.009 62.4107 136.796 62.112C136.583 61.8133 136.487 61.472 136.508 61.088C136.508 61.0453 136.508 61.0133 136.508 60.992C136.572 60.5013 136.807 60.1173 137.212 59.84C136.7 59.5413 135.953 59.392 134.972 59.392H127.708V72C127.729 72.384 127.804 72.7467 127.932 73.088C127.953 73.152 127.975 73.2053 127.996 73.248C128.295 73.9947 128.775 74.6027 129.436 75.072C130.119 75.5413 130.887 75.776 131.74 75.776C132.807 75.776 133.724 75.4133 134.492 74.688C135.26 73.9627 135.676 73.0667 135.74 72V65.696H139.772ZM151.741 72.768C152.061 72.832 152.328 72.992 152.541 73.248C152.776 73.4827 152.925 73.7493 152.989 74.048C153.032 74.2827 153.032 74.5067 152.989 74.72C152.989 74.7413 152.978 74.7627 152.957 74.784C152.957 74.8267 152.946 74.88 152.925 74.944C152.818 75.1787 152.669 75.392 152.477 75.584C152.157 75.8613 151.794 76 151.389 76C149.938 76 148.594 75.6373 147.357 74.912C146.12 74.208 145.149 73.2373 144.445 72C144.082 71.4027 143.805 70.7733 143.613 70.112C143.442 69.4293 143.357 68.7253 143.357 68C143.357 67.9787 143.357 67.968 143.357 67.968V66.528V65.984V65.952V50.88C143.357 50.048 143.122 49.2907 142.653 48.608C142.888 48.7147 143.122 48.832 143.357 48.96C144.594 49.6853 145.565 50.6773 146.269 51.936C146.994 53.1733 147.357 54.5067 147.357 55.936V66.528V72C147.421 72.8747 147.73 73.6533 148.285 74.336C148.84 74.9973 149.544 75.4347 150.397 75.648C149.842 75.2427 149.64 74.6987 149.789 74.016C149.853 73.7173 149.981 73.4613 150.173 73.248C150.365 73.0347 150.6 72.8853 150.877 72.8C151.154 72.7147 151.442 72.704 151.741 72.768ZM182.959 65.536V52.64C182.895 51.9573 182.714 51.3493 182.415 50.816C182.117 50.2827 181.733 49.8773 181.263 49.6C180.794 49.3227 180.282 49.12 179.727 48.992C179.194 48.864 178.65 48.864 178.095 48.992C177.562 49.12 177.061 49.3227 176.591 49.6C176.143 49.8773 175.759 50.2827 175.439 50.816C175.141 51.3493 174.97 51.9573 174.927 52.64V61.76C174.949 62.272 175.066 62.7627 175.279 63.232C175.514 63.68 175.802 64.0747 176.143 64.416C176.485 64.736 176.89 65.0027 177.359 65.216C177.85 65.408 178.351 65.5147 178.863 65.536C178.863 65.536 180.229 65.536 182.959 65.536ZM178.991 75.808C179.845 75.808 180.613 75.5627 181.295 75.072C181.978 74.56 182.458 73.9093 182.735 73.12C182.309 72.6293 181.743 72.288 181.039 72.096C180.357 71.904 179.642 71.84 178.895 71.904C177.807 71.904 176.879 72.288 176.111 73.056C175.343 73.824 174.949 74.7413 174.927 75.808H178.991ZM186.959 56.672C186.959 57.3333 186.959 59.6053 186.959 63.488C186.959 63.808 186.97 64.2987 186.991 64.96C187.013 65.6 187.013 66.112 186.991 66.496C186.991 66.88 186.981 67.3707 186.959 67.968C186.938 68.5653 186.874 69.088 186.767 69.536C186.682 69.9627 186.565 70.4213 186.415 70.912C186.266 71.4027 186.053 71.8613 185.775 72.288C185.519 72.7147 185.21 73.0987 184.847 73.44C185.743 74.1653 186.447 75.0293 186.959 76.032H183.855C183.855 75.4773 183.77 74.976 183.599 74.528C183.002 75.0613 182.149 75.456 181.039 75.712C179.951 75.9467 178.927 76.064 177.967 76.064C177.007 76.064 175.866 76.0533 174.543 76.032C173.242 76.0107 172.325 76.0107 171.791 76.032C172.517 74.56 173.615 73.44 175.087 72.672C176.581 71.8827 178.159 71.552 179.823 71.68C180.911 71.68 181.946 71.8827 182.927 72.288C182.927 72.2027 182.938 72.1173 182.959 72.032V65.728C181.893 65.8133 180.815 65.824 179.727 65.76C178.661 65.696 177.669 65.5787 176.751 65.408C175.855 65.216 174.991 64.8213 174.159 64.224C173.327 63.6053 172.602 62.784 171.983 61.76C171.237 60.4587 170.863 58.944 170.863 57.216C170.863 55.4667 171.237 53.9413 171.983 52.64C172.645 51.5093 173.487 50.6133 174.511 49.952C175.535 49.2907 176.591 48.896 177.679 48.768C178.789 48.6187 179.898 48.6933 181.007 48.992C182.117 49.2693 183.109 49.7493 183.983 50.432C184.858 51.0933 185.573 51.968 186.127 53.056C186.682 54.144 186.959 55.3493 186.959 56.672ZM205.489 65.696C205.489 65.7813 205.489 66.1547 205.489 66.816V68C205.489 69.4293 205.126 70.7627 204.401 72C203.676 73.2373 202.694 74.208 201.457 74.912C200.22 75.6373 198.876 76 197.425 76C195.996 76 194.662 75.6373 193.425 74.912C192.188 74.208 191.217 73.2373 190.513 72C190.15 71.4027 189.873 70.7733 189.681 70.112C189.51 69.4293 189.425 68.7253 189.425 68C189.425 67.9787 189.425 67.968 189.425 67.968V50.88C189.425 50.048 189.19 49.2907 188.721 48.608C188.956 48.7147 189.19 48.832 189.425 48.96C190.662 49.6853 191.633 50.6773 192.337 51.936C193.062 53.1733 193.425 54.5067 193.425 55.936V58.944H200.689C201.052 58.944 201.35 58.944 201.585 58.944C201.82 58.944 202.14 58.9653 202.545 59.008C202.95 59.0293 203.292 59.0933 203.569 59.2C203.868 59.2853 204.166 59.4027 204.465 59.552C204.764 59.68 204.998 59.872 205.169 60.128C205.34 60.3627 205.446 60.64 205.489 60.96C205.489 60.9813 205.489 60.992 205.489 60.992C205.489 61.056 205.489 61.12 205.489 61.184C205.489 61.2267 205.489 61.2587 205.489 61.28C205.489 61.3227 205.489 61.3547 205.489 61.376C205.489 61.3973 205.478 61.408 205.457 61.408C205.436 61.664 205.35 61.8987 205.201 62.112C205.201 62.112 205.201 62.1227 205.201 62.144H205.169C204.934 62.464 204.636 62.6773 204.273 62.784C203.932 62.8693 203.601 62.8587 203.281 62.752C202.982 62.624 202.726 62.4107 202.513 62.112C202.3 61.8133 202.204 61.472 202.225 61.088C202.225 61.0453 202.225 61.0133 202.225 60.992C202.289 60.5013 202.524 60.1173 202.929 59.84C202.417 59.5413 201.67 59.392 200.689 59.392H193.425V72C193.446 72.384 193.521 72.7467 193.649 73.088C193.67 73.152 193.692 73.2053 193.713 73.248C194.012 73.9947 194.492 74.6027 195.153 75.072C195.836 75.5413 196.604 75.776 197.457 75.776C198.524 75.776 199.441 75.4133 200.209 74.688C200.977 73.9627 201.393 73.0667 201.457 72V65.696H205.489ZM220.434 65.472V52.608C220.413 52.2453 220.338 51.8933 220.21 51.552C220.189 51.488 220.167 51.4347 220.146 51.392C219.847 50.624 219.357 50.0053 218.674 49.536C218.013 49.0667 217.255 48.832 216.402 48.832C215.698 48.832 215.047 49.0027 214.45 49.344C213.853 49.664 213.373 50.112 213.01 50.688C212.647 51.264 212.445 51.904 212.402 52.608V61.696C212.466 62.7413 212.882 63.6373 213.65 64.384C214.418 65.1093 215.325 65.472 216.37 65.472H220.434ZM224.434 56.64V65.184C224.434 66.6347 224.071 67.9787 223.346 69.216C222.642 70.4533 221.671 71.4347 220.434 72.16C220.413 72.16 220.381 72.1707 220.338 72.192C220.317 72.2133 220.306 72.224 220.306 72.224C220.647 72.3733 220.989 72.544 221.33 72.736C222.546 73.44 223.517 74.4107 224.242 75.648C224.327 75.776 224.391 75.8933 224.434 76H221.33V75.648H221.298C221.255 74.944 221.053 74.304 220.69 73.728C220.349 73.152 219.879 72.704 219.282 72.384C218.685 72.0427 218.034 71.872 217.33 71.872C217.33 71.872 217.319 71.872 217.298 71.872C216.103 71.872 215.495 71.872 215.474 71.872C214.429 71.872 213.522 72.2347 212.754 72.96C211.986 73.6853 211.57 74.5813 211.506 75.648V76H208.37C208.434 75.8933 208.498 75.776 208.562 75.648C209.287 74.4107 210.269 73.44 211.506 72.736C212.722 72.0107 214.034 71.648 215.442 71.648C215.463 71.648 215.474 71.648 215.474 71.648H217.33C217.351 71.648 217.362 71.648 217.362 71.648C218.258 71.648 219.133 71.7973 219.986 72.096C220.285 71.52 220.434 70.9013 220.434 70.24V65.696H216.37C214.941 65.696 213.607 65.344 212.37 64.64C211.154 63.9147 210.183 62.9333 209.458 61.696C208.797 60.5867 208.434 59.3813 208.37 58.08V58.048C208.37 58.0267 208.37 58.0053 208.37 57.984C208.37 57.9627 208.37 57.9413 208.37 57.92C208.37 57.8987 208.37 57.888 208.37 57.888C208.37 57.8453 208.37 57.7813 208.37 57.696V56.608C208.37 56.5653 208.37 56.512 208.37 56.448C208.37 56.384 208.37 56.32 208.37 56.256V56.224C208.434 54.9227 208.797 53.7173 209.458 52.608C210.183 51.3707 211.165 50.4 212.402 49.696C213.639 48.9707 214.973 48.608 216.402 48.608C217.853 48.608 219.197 48.9707 220.434 49.696C221.671 50.4 222.642 51.3707 223.346 52.608C224.071 53.8453 224.434 55.1893 224.434 56.64Z" fill="#252222"></path></svg> 